<svg width="124" height="124" viewBox="0 0 124 124" fill="none" xmlns="http://www.w3.org/2000/svg">
<path d="M62.0222 0C44.7468 0 29.0743 7.12132 17.8097 18.5599C17.2754 18.8715 16.8302 19.3166 16.563 19.8952C6.32244 30.9777 0 45.7545 0 62C0 78.2455 6.27791 93.0668 16.563 104.149C16.8302 104.683 17.2309 105.084 17.7652 105.396C29.0298 116.879 44.7023 124 62.0222 124C66.7418 124 71.4614 123.466 76.0028 122.398C77.6502 122.042 78.6743 120.395 78.2736 118.748C77.9174 117.101 76.27 116.078 74.6226 116.478C70.5264 117.413 66.252 117.902 61.9777 117.902C46.4388 117.902 32.4136 111.538 22.2621 101.301V24.0345C36.9551 25.2362 48.5759 37.565 48.5759 52.5642C48.5759 63.6913 42.0754 73.8837 31.9684 78.5571C31.1224 78.8241 30.3655 79.4472 30.0093 80.2929C29.5196 81.4056 29.7867 82.7408 30.6772 83.5865L51.9598 104.861C52.5386 105.44 53.34 105.752 54.0969 105.752C54.8538 105.752 55.6553 105.44 56.2341 104.861C57.4362 103.66 57.4362 101.746 56.2341 100.589L37.8901 82.2067C41.1404 80.2484 43.9899 77.7559 46.3942 74.9519C48.5314 86.4795 58.6384 95.2477 70.7935 95.2477C84.4624 95.2477 95.5935 84.1206 95.5935 70.4566C95.5935 69.3439 95.5044 68.2757 95.3709 67.163C99.3335 69.2548 103.875 70.4566 108.639 70.4566C110.331 70.4566 111.667 69.0768 111.667 67.43C111.667 65.7832 110.286 64.4035 108.639 64.4035C96.2168 64.4035 86.1098 54.3001 86.1098 41.8823C86.1098 32.7581 91.6754 24.4795 100.09 21.0524C111.043 31.2893 117.945 45.8435 117.945 61.9555C117.945 63.6468 119.325 64.982 120.972 64.982C122.664 64.982 124 63.6023 124 61.9555C124.044 27.8177 96.2168 0 62.0222 0ZM6.05529 62C6.05529 50.0718 9.79533 38.9892 16.2068 29.9095V94.0905C9.83985 85.0108 6.05529 73.9282 6.05529 62ZM70.838 89.1945C60.5084 89.1945 52.0933 80.7825 52.0933 70.4566C52.0933 60.1307 60.5084 51.7186 70.838 51.7186C81.1676 51.7186 89.5827 60.1307 89.5827 70.4566C89.5827 80.827 81.1676 89.1945 70.838 89.1945ZM80.0991 41.9268C80.0991 43.9296 80.3217 45.888 80.6779 47.7574C77.6502 46.4221 74.3109 45.71 70.7935 45.71C64.6046 45.71 58.9501 47.9799 54.6312 51.7186C54.275 35.295 42.4316 21.6755 26.8036 18.5599C36.4208 10.771 48.7095 6.05312 62.0222 6.05312C74.3554 6.05312 85.7536 10.0589 95.0147 16.8241C85.9317 21.809 80.0991 31.3783 80.0991 41.9268Z" fill="#4b4b4b"/>
<path d="M93.5009 113.63C93.3673 113.541 93.2337 113.496 93.0111 113.452C92.7885 113.407 92.6104 113.452 92.3877 113.585C92.2542 113.63 92.1651 113.719 92.0761 113.852C91.987 113.941 91.898 114.075 91.898 114.253C91.898 114.342 91.8535 114.431 91.7644 114.564C91.6754 114.698 91.5863 114.787 91.4973 114.92C91.4082 115.054 91.2747 115.187 91.0965 115.276C90.963 115.41 90.7849 115.499 90.6068 115.588C90.2506 115.766 89.9389 115.855 89.6273 115.899C89.3156 115.899 89.0039 115.899 88.7368 115.81C88.4696 115.721 88.247 115.588 88.0244 115.41C87.8463 115.232 87.6682 115.054 87.5346 114.831C87.401 114.52 87.312 114.253 87.2675 113.941C87.2675 113.674 87.312 113.407 87.401 113.14C87.4901 112.873 87.6237 112.65 87.8018 112.472C87.9799 112.294 88.158 112.116 88.3806 112.027C88.5587 111.938 88.7813 111.849 88.9594 111.805C89.1375 111.76 89.3156 111.716 89.4937 111.716C89.6718 111.716 89.8053 111.671 89.9389 111.716C90.0725 111.716 90.1615 111.716 90.2506 111.76C90.4287 111.805 90.6068 111.805 90.6958 111.805C90.8294 111.805 90.9184 111.76 91.0965 111.671C91.2301 111.627 91.3192 111.538 91.4082 111.404C91.4973 111.271 91.5863 111.182 91.6308 111.048C91.6754 110.915 91.6754 110.781 91.6754 110.603C91.6754 110.469 91.6308 110.336 91.5418 110.202C91.4973 110.069 91.4082 109.98 91.2746 109.891C91.1856 109.802 91.052 109.713 90.8739 109.668C90.7404 109.624 90.5623 109.579 90.2951 109.579C90.028 109.535 89.7608 109.535 89.4492 109.579C89.1375 109.624 88.7813 109.668 88.4251 109.757C88.0689 109.846 87.7127 109.98 87.3565 110.158C86.8222 110.425 86.377 110.781 86.0208 111.226C85.6646 111.671 85.3974 112.161 85.2639 112.65C85.0858 113.184 85.0413 113.719 85.0858 114.297C85.1303 114.876 85.3084 115.41 85.5755 115.944C85.8872 116.523 86.2434 116.968 86.6887 117.324C87.1339 117.68 87.6237 117.947 88.158 118.08C88.6922 118.214 89.2265 118.303 89.7608 118.214C90.2951 118.169 90.8294 117.991 91.3192 117.769C91.6308 117.635 91.898 117.457 92.1651 117.235C92.4323 117.057 92.6994 116.834 92.922 116.567C93.1447 116.345 93.3228 116.078 93.5009 115.81C93.679 115.543 93.768 115.276 93.857 115.009C93.9016 114.831 93.9461 114.698 93.9016 114.564C93.9016 114.431 93.857 114.297 93.768 114.164C93.768 113.897 93.6344 113.763 93.5009 113.63Z" fill="#4b4b4b"/>
<path d="M104.142 107.398L101.471 104.194C101.204 103.882 100.936 103.615 100.58 103.348C100.269 103.081 99.9123 102.903 99.5116 102.814C99.1109 102.725 98.6657 102.77 98.1759 102.903C97.6861 103.037 97.1518 103.348 96.5285 103.838C95.9497 104.327 95.5044 104.817 95.2818 105.262C95.0592 105.707 94.9256 106.152 94.9256 106.553C94.9256 106.953 95.0147 107.354 95.2373 107.71C95.4154 108.066 95.638 108.422 95.9052 108.734L98.5766 111.938C98.6657 112.072 98.7992 112.161 98.9328 112.205C99.0664 112.25 99.2 112.294 99.3335 112.294C99.4671 112.294 99.6007 112.294 99.7342 112.25C99.8678 112.205 100.001 112.161 100.09 112.027L100.135 111.983C100.224 111.894 100.313 111.805 100.402 111.671C100.491 111.538 100.491 111.404 100.536 111.271C100.536 111.137 100.536 111.004 100.491 110.87C100.447 110.737 100.402 110.603 100.269 110.469L99.0219 108.956L101.115 107.22L102.361 108.734C102.45 108.867 102.584 108.956 102.717 109.001C102.851 109.045 102.985 109.09 103.118 109.09C103.252 109.09 103.385 109.09 103.519 109.045C103.652 109.001 103.786 108.956 103.875 108.867L103.92 108.823C104.009 108.734 104.098 108.645 104.187 108.511C104.276 108.378 104.32 108.244 104.32 108.111C104.32 107.977 104.32 107.843 104.276 107.71C104.32 107.665 104.231 107.532 104.142 107.398ZM97.9533 107.665C97.8642 107.532 97.4635 107.042 97.3745 106.909C97.3299 106.775 97.2854 106.597 97.2854 106.464C97.2854 106.33 97.3299 106.152 97.419 105.974C97.508 105.796 97.6416 105.663 97.8642 105.485C98.0869 105.307 98.2649 105.218 98.443 105.129C98.6211 105.084 98.7992 105.039 98.9328 105.084C99.0664 105.129 99.2445 105.173 99.3781 105.262C99.5116 105.351 99.9569 105.796 100.046 105.93L97.9533 107.665Z" fill="#4b4b4b"/>
<path d="M113.136 97.6511C113.092 97.5176 112.958 97.4286 112.869 97.3396L107.927 93.4673C107.793 93.3783 107.66 93.2893 107.526 93.2893C107.392 93.2448 107.259 93.2448 107.125 93.2448C106.992 93.2448 106.858 93.2893 106.725 93.3783C106.591 93.4228 106.502 93.5564 106.413 93.6454L106.368 93.7344C106.279 93.8679 106.235 93.9569 106.19 94.0905C106.146 94.224 106.146 94.3575 106.146 94.491C106.146 94.6245 106.19 94.7581 106.279 94.8916C106.324 95.0251 106.413 95.1141 106.546 95.2032L109.04 97.1615C108.238 97.1615 107.437 97.1615 106.68 97.117C105.879 97.117 105.077 97.117 104.276 97.117C104.098 97.117 103.964 97.1615 103.786 97.2505C103.608 97.3396 103.474 97.4286 103.385 97.5621L103.252 97.7401C103.163 97.8737 103.074 98.0072 103.029 98.1407C102.985 98.2742 102.985 98.4078 102.985 98.5858C102.985 98.7193 103.029 98.8528 103.118 98.9864C103.207 99.1199 103.296 99.2089 103.385 99.3424L108.283 103.215C108.416 103.304 108.506 103.348 108.639 103.393C108.773 103.437 108.906 103.437 109.04 103.437C109.173 103.437 109.307 103.393 109.441 103.304C109.574 103.259 109.663 103.17 109.752 103.037L109.797 102.948C109.886 102.814 109.975 102.725 109.975 102.547C110.019 102.413 110.019 102.28 110.019 102.146C110.019 102.013 109.975 101.879 109.886 101.746C109.841 101.612 109.752 101.523 109.619 101.434L107.036 99.3869C107.481 99.3869 107.882 99.4314 108.283 99.4314C108.684 99.4314 109.084 99.4314 109.485 99.4314C109.886 99.4314 110.286 99.4314 110.687 99.4314C111.088 99.4314 111.533 99.4314 111.978 99.4314C112.157 99.4314 112.29 99.3869 112.468 99.2979C112.602 99.2089 112.735 99.1199 112.869 98.9864L112.958 98.8528C113.047 98.7193 113.136 98.5858 113.181 98.4523C113.225 98.3187 113.225 98.1852 113.225 98.0072C113.27 97.9182 113.225 97.7846 113.136 97.6511Z" fill="#4b4b4b"/>
<path d="M118.078 84.6102C117.722 84.2096 117.277 83.8981 116.742 83.631C116.342 83.4085 115.852 83.2749 115.318 83.1859C114.783 83.0969 114.294 83.1414 113.759 83.2304C113.225 83.364 112.735 83.5865 112.29 83.8981C111.845 84.2541 111.444 84.7437 111.132 85.4113L109.975 87.8593C109.93 87.9928 109.886 88.1263 109.886 88.2599C109.886 88.3934 109.886 88.5269 109.93 88.6604C109.975 88.794 110.064 88.9275 110.153 89.0165C110.242 89.15 110.376 89.239 110.509 89.2836L116.03 91.954C116.164 91.9986 116.297 92.0431 116.475 92.0431C116.609 92.0431 116.787 92.0431 116.921 91.9986C117.054 91.9541 117.188 91.865 117.277 91.776C117.41 91.687 117.455 91.5535 117.544 91.42L118.702 88.972C118.969 88.4379 119.102 87.9038 119.102 87.3697C119.102 86.8356 119.058 86.3015 118.88 85.8564C118.702 85.4558 118.434 85.0108 118.078 84.6102ZM116.698 88.0818L115.986 89.5061L112.468 87.8148L113.181 86.3905C113.314 86.168 113.448 85.9454 113.626 85.8119C113.804 85.6784 114.027 85.5449 114.249 85.5004C114.472 85.4558 114.739 85.4113 115.006 85.4558C115.273 85.5004 115.54 85.5449 115.763 85.6784C115.941 85.7674 116.119 85.9009 116.297 86.0345C116.475 86.2125 116.609 86.3905 116.698 86.5686C116.787 86.7911 116.876 87.0136 116.876 87.2807C116.921 87.5477 116.832 87.8148 116.698 88.0818Z" fill="#4b4b4b"/>
<path d="M122.931 76.4652C122.842 76.3317 122.753 76.2426 122.664 76.1536C122.575 76.0646 122.397 76.0201 122.263 75.9756L119.904 75.397L117.41 72.3704C117.321 72.2814 117.277 72.1924 117.143 72.1479C117.054 72.1034 116.921 72.0144 116.832 72.0144C116.698 71.9698 116.564 71.9698 116.386 72.0144C116.253 72.0589 116.119 72.1034 115.986 72.1479C115.852 72.2369 115.763 72.3259 115.674 72.4149C115.585 72.5485 115.496 72.682 115.496 72.8155C115.451 72.9935 115.451 73.1716 115.496 73.3496C115.54 73.5276 115.629 73.6612 115.718 73.8392C115.852 73.9727 115.986 74.1507 116.119 74.3288C116.253 74.5068 116.431 74.6849 116.609 74.9074C116.787 75.0854 116.921 75.308 117.099 75.486C117.277 75.664 117.41 75.8421 117.499 75.9756L114.917 76.9993C114.783 77.0438 114.605 77.1773 114.516 77.3108C114.383 77.4444 114.294 77.6224 114.249 77.7559C114.205 77.8895 114.205 78.0675 114.249 78.201C114.294 78.3345 114.338 78.4681 114.427 78.6016C114.516 78.7351 114.605 78.8241 114.739 78.9131C114.872 79.0022 115.006 79.0467 115.14 79.0912C115.362 79.1357 115.585 79.1357 115.807 79.0467L119.458 77.5779L121.818 78.1565C121.996 78.201 122.13 78.201 122.263 78.1565C122.397 78.112 122.531 78.0675 122.664 78.023C122.798 77.934 122.887 77.8449 122.976 77.7559C123.065 77.6224 123.109 77.5334 123.154 77.3999V77.3108C123.198 77.1773 123.198 77.0438 123.154 76.9103C123.065 76.7322 123.02 76.5987 122.931 76.4652Z" fill="#4b4b4b"/>
<defs>
<linearGradient id="paint0_linear_1102_214" x1="124" y1="124" x2="0" y2="0" gradientUnits="userSpaceOnUse">
<stop stop-color="#DAA141"/>
<stop offset="0.0404341" stop-color="#C4933F"/>
<stop offset="0.0883427" stop-color="#B4893E"/>
<stop offset="0.1272" stop-color="#AE863D"/>
<stop offset="0.1818" stop-color="#A4782D"/>
<stop offset="0.3515" stop-color="#FAE08A"/>
<stop offset="0.4303" stop-color="#E2AF61"/>
<stop offset="0.4667" stop-color="#E2AF61"/>
<stop offset="0.5394" stop-color="#B27B38"/>
<stop offset="0.6485" stop-color="#DBA85A"/>
<stop offset="0.703" stop-color="#E2C171"/>
<stop offset="0.8" stop-color="#A4792F"/>
<stop offset="0.8485" stop-color="#AE863D"/>
<stop offset="0.903" stop-color="#E0C26F"/>
<stop offset="0.9515" stop-color="#DBB163"/>
<stop offset="1" stop-color="#AE863D"/>
</linearGradient>
<linearGradient id="paint1_linear_1102_214" x1="124" y1="124" x2="0" y2="0" gradientUnits="userSpaceOnUse">
<stop stop-color="#DAA141"/>
<stop offset="0.0404341" stop-color="#C4933F"/>
<stop offset="0.0883427" stop-color="#B4893E"/>
<stop offset="0.1272" stop-color="#AE863D"/>
<stop offset="0.1818" stop-color="#A4782D"/>
<stop offset="0.3515" stop-color="#FAE08A"/>
<stop offset="0.4303" stop-color="#E2AF61"/>
<stop offset="0.4667" stop-color="#E2AF61"/>
<stop offset="0.5394" stop-color="#B27B38"/>
<stop offset="0.6485" stop-color="#DBA85A"/>
<stop offset="0.703" stop-color="#E2C171"/>
<stop offset="0.8" stop-color="#A4792F"/>
<stop offset="0.8485" stop-color="#AE863D"/>
<stop offset="0.903" stop-color="#E0C26F"/>
<stop offset="0.9515" stop-color="#DBB163"/>
<stop offset="1" stop-color="#AE863D"/>
</linearGradient>
<linearGradient id="paint2_linear_1102_214" x1="124" y1="124" x2="0" y2="0" gradientUnits="userSpaceOnUse">
<stop stop-color="#DAA141"/>
<stop offset="0.0404341" stop-color="#C4933F"/>
<stop offset="0.0883427" stop-color="#B4893E"/>
<stop offset="0.1272" stop-color="#AE863D"/>
<stop offset="0.1818" stop-color="#A4782D"/>
<stop offset="0.3515" stop-color="#FAE08A"/>
<stop offset="0.4303" stop-color="#E2AF61"/>
<stop offset="0.4667" stop-color="#E2AF61"/>
<stop offset="0.5394" stop-color="#B27B38"/>
<stop offset="0.6485" stop-color="#DBA85A"/>
<stop offset="0.703" stop-color="#E2C171"/>
<stop offset="0.8" stop-color="#A4792F"/>
<stop offset="0.8485" stop-color="#AE863D"/>
<stop offset="0.903" stop-color="#E0C26F"/>
<stop offset="0.9515" stop-color="#DBB163"/>
<stop offset="1" stop-color="#AE863D"/>
</linearGradient>
<linearGradient id="paint3_linear_1102_214" x1="124" y1="124" x2="0" y2="0" gradientUnits="userSpaceOnUse">
<stop stop-color="#DAA141"/>
<stop offset="0.0404341" stop-color="#C4933F"/>
<stop offset="0.0883427" stop-color="#B4893E"/>
<stop offset="0.1272" stop-color="#AE863D"/>
<stop offset="0.1818" stop-color="#A4782D"/>
<stop offset="0.3515" stop-color="#FAE08A"/>
<stop offset="0.4303" stop-color="#E2AF61"/>
<stop offset="0.4667" stop-color="#E2AF61"/>
<stop offset="0.5394" stop-color="#B27B38"/>
<stop offset="0.6485" stop-color="#DBA85A"/>
<stop offset="0.703" stop-color="#E2C171"/>
<stop offset="0.8" stop-color="#A4792F"/>
<stop offset="0.8485" stop-color="#AE863D"/>
<stop offset="0.903" stop-color="#E0C26F"/>
<stop offset="0.9515" stop-color="#DBB163"/>
<stop offset="1" stop-color="#AE863D"/>
</linearGradient>
<linearGradient id="paint4_linear_1102_214" x1="124" y1="124" x2="0" y2="0" gradientUnits="userSpaceOnUse">
<stop stop-color="#DAA141"/>
<stop offset="0.0404341" stop-color="#C4933F"/>
<stop offset="0.0883427" stop-color="#B4893E"/>
<stop offset="0.1272" stop-color="#AE863D"/>
<stop offset="0.1818" stop-color="#A4782D"/>
<stop offset="0.3515" stop-color="#FAE08A"/>
<stop offset="0.4303" stop-color="#E2AF61"/>
<stop offset="0.4667" stop-color="#E2AF61"/>
<stop offset="0.5394" stop-color="#B27B38"/>
<stop offset="0.6485" stop-color="#DBA85A"/>
<stop offset="0.703" stop-color="#E2C171"/>
<stop offset="0.8" stop-color="#A4792F"/>
<stop offset="0.8485" stop-color="#AE863D"/>
<stop offset="0.903" stop-color="#E0C26F"/>
<stop offset="0.9515" stop-color="#DBB163"/>
<stop offset="1" stop-color="#AE863D"/>
</linearGradient>
<linearGradient id="paint5_linear_1102_214" x1="124" y1="124" x2="0" y2="0" gradientUnits="userSpaceOnUse">
<stop stop-color="#DAA141"/>
<stop offset="0.0404341" stop-color="#C4933F"/>
<stop offset="0.0883427" stop-color="#B4893E"/>
<stop offset="0.1272" stop-color="#AE863D"/>
<stop offset="0.1818" stop-color="#A4782D"/>
<stop offset="0.3515" stop-color="#FAE08A"/>
<stop offset="0.4303" stop-color="#E2AF61"/>
<stop offset="0.4667" stop-color="#E2AF61"/>
<stop offset="0.5394" stop-color="#B27B38"/>
<stop offset="0.6485" stop-color="#DBA85A"/>
<stop offset="0.703" stop-color="#E2C171"/>
<stop offset="0.8" stop-color="#A4792F"/>
<stop offset="0.8485" stop-color="#AE863D"/>
<stop offset="0.903" stop-color="#E0C26F"/>
<stop offset="0.9515" stop-color="#DBB163"/>
<stop offset="1" stop-color="#AE863D"/>
</linearGradient>
</defs>
</svg>
